<?xml version="1.0" encoding="utf-8"?>
<!-- Generator: Adobe Illustrator 23.0.3, SVG Export Plug-In . SVG Version: 6.00 Build 0)  -->
<svg version="1.1" id="Capa_1" xmlns="http://www.w3.org/2000/svg" xmlns:xlink="http://www.w3.org/1999/xlink" x="0px" y="0px"
	 viewBox="0 0 545 545" style="enable-background:new 0 0 545 545;" xml:space="preserve">
<style type="text/css">
	.st0{fill:url(#SVGID_1_);}
</style>
<g>
	<linearGradient id="SVGID_1_" gradientUnits="userSpaceOnUse" x1="0" y1="272.5135" x2="545.027" y2="272.5135">
		<stop  offset="0" style="stop-color:#1245C6"/>
		<stop  offset="1" style="stop-color:#9909B7"/>
	</linearGradient>
	<path class="st0" d="M540.7,281.4c-4.2-8.8-10.6-15.5-19.1-20.1c-8.6-4.7-18-7-28.3-7h-54.8v-45.7c0-17.5-6.3-32.5-18.8-45.1
		c-12.6-12.6-27.6-18.8-45.1-18.8H219.3v-9.1c0-17.5-6.3-32.5-18.8-45.1c-12.6-12.6-27.6-18.8-45.1-18.8H64
		c-17.5,0-32.5,6.3-45.1,18.8C6.3,102.9,0,118,0,135.5v274.1c0,17.5,6.3,32.5,18.8,45.1c12.6,12.6,27.6,18.8,45.1,18.8h310.6
		c12.7,0,26.1-3.3,40-9.9c13.9-6.6,24.9-14.9,33.1-25L531.9,335c8.8-11,13.1-22.5,13.1-34.3C545,293.9,543.6,287.5,540.7,281.4z
		 M36.5,135.5c0-7.6,2.7-14.1,8-19.4c5.3-5.3,11.8-8,19.4-8h91.4c7.6,0,14.1,2.7,19.4,8c5.3,5.3,8,11.8,8,19.4v18.3
		c0,7.6,2.7,14.1,8,19.4s11.8,8,19.4,8h164.5c7.6,0,14.1,2.7,19.4,8c5.3,5.3,8,11.8,8,19.4v45.7H182.7c-12.9,0-26.3,3.3-40,9.9
		c-13.7,6.6-24.7,14.9-33.1,25L36.5,379L36.5,135.5L36.5,135.5z M503.3,311.9l-83.9,103.6c-4.8,5.9-11.5,10.9-20.3,15.1
		c-8.8,4.2-16.9,6.3-24.6,6.3H64c-10.1,0-15.1-3.3-15.1-10c0-3,1.7-6.9,5.1-11.4l83.9-103.6c4.9-5.9,11.8-10.9,20.4-15
		c8.7-4.1,16.8-6.1,24.4-6.1h310.6c10.1,0,15.1,3.3,15.1,10C508.5,304,506.8,307.7,503.3,311.9z"/>
</g>
</svg>
